Coordinates
version=1
nRows=9
nColumns=36
inDegrees=yes

Units are S.I. units (second, meters, Newtons, ...)
If the header above contains a line with 'inDegrees', this indicates whether rotational values are in degrees (yes) or radians (no).

endheader
time	pelvis_tilt	pelvis_list	pelvis_rotation	pelvis_tx	pelvis_ty	pelvis_tz	hip_flexion_r	hip_adduction_r	hip_rotation_r	knee_angle_r	knee_angle_r_beta	ankle_angle_r	subtalar_angle_r	mtp_angle_r	hip_flexion_l	hip_adduction_l	hip_rotation_l	knee_angle_l	knee_angle_l_beta	ankle_angle_l	subtalar_angle_l	mtp_angle_l	lumbar_extension	lumbar_bending	lumbar_rotation	arm_flex_r	arm_add_r	arm_rot_r	elbow_flex_r	pro_sup_r	arm_flex_l	arm_add_l	arm_rot_l	elbow_flex_l	pro_sup_l
      0.00000000	     -0.37997068	     -2.96153262	     -2.56469854	     -0.02196961	      1.24284542	      0.13451935	     -0.09763704	      2.92545262	      1.03490600	      4.93520818	      0.08613563	     -1.88226655	    -21.59252906	     -6.90600684	     -2.02086456	     -3.24943717	     -5.06724395	      2.40561198	      0.04198585	      6.25219229	     -6.57524246	     -6.90600684	     -9.31244638	      1.86391629	     -1.42032061	     -2.51242642	     -6.92988546	      0.19930602	     29.68929968	     85.08614363	     -5.01523509	    -10.09823564	      1.69887743	     44.65007997	     83.12395962
      0.01666670	     -3.04034642	     -2.80510089	     -2.47200392	     -0.02049914	      1.23733086	      0.13375938	      2.39121576	      2.90230165	     -0.09095687	      5.13002871	      0.08953589	      2.26067227	    -15.80874883	     -7.13176486	      0.94851255	     -2.77701547	     -7.38243901	      2.08254259	      0.03634722	      7.24966680	     -3.89105605	     -7.13176486	     -5.28735519	      1.86874173	     -1.66083410	     -4.19583972	     -5.32268264	     -6.09876174	     30.30847339	     88.20831748	     -5.71541999	     -8.11918571	     -3.59144593	     44.58322277	     86.77555806
      0.03333330	     -3.58255030	     -2.22565018	     -3.10105607	     -0.02011229	      1.23498998	      0.13429926	      2.74434919	      2.18366965	     -0.48506681	      4.65311347	      0.08121215	      3.87494578	    -13.55578148	     -7.28255852	      1.26501358	     -2.10712832	     -9.52411634	      1.84098915	      0.03213132	      7.93178886	     -1.77018878	     -7.28255852	     -4.37410834	      1.06167412	     -1.03536171	     -4.97499851	     -4.77272317	     -9.31792082	     32.15994484	     89.15476110	     -6.04836281	     -8.42627326	     -3.76371766	     44.64159271	     87.07198820
      0.05000000	     -3.49552829	     -1.85901281	     -3.39047441	     -0.02598083	      1.23873483	      0.13188225	      2.72831267	      1.67405606	     -0.91059550	      4.33647715	      0.07568580	      4.34949806	    -12.35204825	     -7.28816569	      0.97966029	     -1.48120128	    -10.63499958	      1.23952321	      0.02163376	      7.35769497	     -1.10917399	     -7.28816569	     -4.55997002	      0.54463201	     -0.81008396	     -4.65765909	     -4.94252226	     -9.53052297	     32.91810286	     89.19458631	     -6.48140714	     -8.84710447	     -3.80798328	     45.12648700	     87.15840699
      0.06666670	     -3.14446541	     -1.69644620	     -3.46720274	     -0.02049301	      1.23739160	      0.13481687	      2.05990998	      1.55855547	     -1.11059456	      3.88774310	      0.06785392	      4.74436550	    -11.44361730	     -7.29480077	      0.44526671	     -1.24932935	    -11.27328264	      1.00674046	      0.01757094	      7.36941662	     -0.04031433	     -7.29480077	     -4.92087740	      0.24520984	     -0.67669404	     -4.91727611	     -4.87757539	     -9.78606105	     34.03065603	     89.20863092	     -7.06309845	     -9.26431656	     -3.63883304	     46.05618462	     87.37017906
      0.08333330	     -2.99072197	     -1.56154130	     -3.49419687	     -0.02104129	      1.24025031	      0.13533208	      1.69928913	      1.48057796	     -1.41824121	      3.67414108	      0.06412586	      4.85227330	    -11.07899258	     -7.35854151	      0.11062537	     -1.10227287	    -11.77153696	      0.89497680	      0.01562029	      7.10198544	      0.60105697	     -7.35854151	     -4.97206037	      0.01377310	     -0.33439194	     -5.17269898	     -4.88592851	     -9.44371120	     34.56319834	     86.45121488	     -6.93854481	     -9.76636571	     -2.38648809	     46.01828678	     85.28826611
      0.10000000	     -3.00901445	     -1.46300909	     -3.50517081	     -0.02601274	      1.24050716	      0.13219084	      1.68978938	      1.32311911	     -1.59923863	      3.49133894	      0.06093536	      4.91507105	    -11.10275048	     -7.35875399	      0.17892620	     -0.95919886	    -11.78582344	      0.91518864	      0.01597306	      6.98671545	      0.63656425	     -7.35875399	     -5.04898233	     -0.03948313	     -0.23259064	     -4.95962614	     -4.95530198	     -9.46573935	     34.67031894	     86.46562334	     -6.91719044	     -9.86588614	     -2.42602195	     45.98228555	     85.30489227
      0.11666670	     -2.60240824	     -1.37605865	     -3.25703574	     -0.02697756	      1.24071676	      0.13216923	      1.09473237	      1.14587324	     -2.25868444	      2.95388022	      0.05155494	      5.20827702	    -10.04741332	     -7.42946600	     -0.12080242	     -0.82607431	    -11.60305913	      0.84299435	      0.01471303	      6.77786960	      1.04939462	     -7.42946600	     -5.71212939	     -0.18626421	     -0.29273669	     -5.12295603	     -4.75175934	    -10.88017557	     35.42097304	     88.96446996	     -6.34613470	     -9.91447295	     -2.78967852	     45.49602304	     88.49664060
      0.13333330	     -2.39828113	     -1.35607512	     -3.15977226	     -0.02661382	      1.24103537	      0.13213019	      0.82725505	      1.09523015	     -2.62169514	      2.60746739	      0.04550889	      5.17212091	     -9.84156897	     -7.45084619	     -0.22056134	     -0.81361370	    -11.65554576	      0.82990673	      0.01448460	      6.70859934	      1.46832853	     -7.45084619	     -5.99703423	     -0.19538775	     -0.44587592	     -4.96850077	     -4.87635521	    -10.33252983	     35.38679120	     85.27196852	     -6.18867141	    -10.04794887	     -2.31007125	     44.91683105	     84.75894129
